<mxfile host="app.diagrams.net" modified="2022-06-19T22:33:25.713Z" agent="5.0 (X11; Linux x86_64) AppleWebKit/537.36 (KHTML, like Gecko) Chrome/96.0.4664.110 Safari/537.36" etag="oq3BSzFx7BrRoe8J6Dli" version="20.0.1" type="github" pages="3">
  <diagram name="product_denormalization" id="2ca16b54-16f6-2749-3443-fa8db7711227">
    <mxGraphModel dx="1422" dy="793" grid="1" gridSize="10" guides="1" tooltips="1" connect="1" arrows="1" fold="1" page="1" pageScale="1" pageWidth="1100" pageHeight="850" background="none" math="0" shadow="0">
      <root>
        <mxCell id="0" />
        <mxCell id="1" parent="0" />
        <mxCell id="jCXSHF31f1DGIERjWWqb-10" style="edgeStyle=orthogonalEdgeStyle;rounded=0;orthogonalLoop=1;jettySize=auto;html=1;exitX=1;exitY=0.75;exitDx=0;exitDy=0;entryX=0;entryY=0.25;entryDx=0;entryDy=0;startArrow=ERmany;startFill=0;endArrow=none;endFill=0;" parent="1" source="2ed32ef02a7f4228-8" target="jCXSHF31f1DGIERjWWqb-9" edge="1">
          <mxGeometry relative="1" as="geometry" />
        </mxCell>
        <mxCell id="jCXSHF31f1DGIERjWWqb-17" value="" style="edgeStyle=orthogonalEdgeStyle;rounded=0;orthogonalLoop=1;jettySize=auto;html=1;startArrow=ERmany;startFill=0;endArrow=none;endFill=0;exitX=1.009;exitY=0.779;exitDx=0;exitDy=0;exitPerimeter=0;entryX=-0.018;entryY=0.077;entryDx=0;entryDy=0;entryPerimeter=0;" parent="1" source="2ed32ef02a7f4228-8" target="jCXSHF31f1DGIERjWWqb-16" edge="1">
          <mxGeometry relative="1" as="geometry" />
        </mxCell>
        <mxCell id="2ed32ef02a7f4228-8" value="&lt;div style=&quot;box-sizing: border-box ; width: 100% ; background: #e4e4e4 ; padding: 2px&quot;&gt;production.product&lt;/div&gt;&lt;table border=&quot;1&quot; style=&quot;width: 100%; font-size: 1em; border: 1px solid rgb(3, 3, 3); border-collapse: collapse;&quot; cellpadding=&quot;2&quot; cellspacing=&quot;0&quot;&gt;&lt;tbody&gt;&lt;tr&gt;&lt;td&gt;PK&lt;/td&gt;&lt;td&gt;productid&lt;/td&gt;&lt;/tr&gt;&lt;tr&gt;&lt;td&gt;&lt;br&gt;&lt;br&gt;&lt;br&gt;&lt;br&gt;&lt;br&gt;&lt;br&gt;FK&lt;br&gt;FK&lt;br&gt;&lt;br&gt;&lt;br&gt;&lt;br&gt;&lt;br&gt;FK&lt;br&gt;FK&lt;/td&gt;&lt;td&gt;name&lt;br&gt;productnumber&lt;br&gt;makeflag&lt;br&gt;finishedgoodsflag&lt;br&gt;color&lt;br&gt;safetystocklevel&lt;br&gt;reorderpoint&lt;br&gt;standardcost&lt;br&gt;listprice&lt;br&gt;size&lt;br&gt;weight&lt;br&gt;sizeunitmeasurecode&lt;br&gt;weightunitmeasurecode&lt;br&gt;daystomanufacture&lt;br&gt;productline&lt;br&gt;class&lt;br&gt;style&lt;br&gt;productsubcategoryid&lt;br&gt;productmodelid&lt;br&gt;sellstartdate&lt;br&gt;sellenddate&lt;br&gt;discontinueddate&lt;br&gt;rowguid&lt;br&gt;modifieddate&lt;/td&gt;&lt;/tr&gt;&lt;/tbody&gt;&lt;/table&gt;" style="verticalAlign=top;align=left;overflow=fill;html=1;rounded=0;shadow=0;comic=0;labelBackgroundColor=none;strokeWidth=1;fontFamily=Verdana;fontSize=12;strokeColor=#141414;" parent="1" vertex="1">
          <mxGeometry y="110" width="220" height="390" as="geometry" />
        </mxCell>
        <mxCell id="jCXSHF31f1DGIERjWWqb-14" value="" style="edgeStyle=orthogonalEdgeStyle;rounded=0;orthogonalLoop=1;jettySize=auto;html=1;startArrow=ERmany;startFill=0;endArrow=none;endFill=0;entryX=0;entryY=0.25;entryDx=0;entryDy=0;exitX=0;exitY=0.5;exitDx=0;exitDy=0;" parent="1" source="jCXSHF31f1DGIERjWWqb-9" target="jCXSHF31f1DGIERjWWqb-13" edge="1">
          <mxGeometry relative="1" as="geometry" />
        </mxCell>
        <mxCell id="jCXSHF31f1DGIERjWWqb-9" value="&lt;div style=&quot;box-sizing: border-box ; width: 100% ; background: #e4e4e4 ; padding: 2px&quot;&gt;production.productsubcategory&lt;/div&gt;&lt;table border=&quot;1&quot; style=&quot;width: 100%; font-size: 1em; border: 1px solid rgb(3, 3, 3); border-collapse: collapse;&quot; cellpadding=&quot;2&quot; cellspacing=&quot;0&quot;&gt;&lt;tbody&gt;&lt;tr&gt;&lt;td&gt;PK&lt;/td&gt;&lt;td&gt;productsubcategoryid&lt;/td&gt;&lt;/tr&gt;&lt;tr&gt;&lt;td&gt;FK&lt;br&gt;&lt;br&gt;&lt;br&gt;&lt;br&gt;&lt;/td&gt;&lt;td&gt;productcategoryid&lt;br&gt;name&lt;br&gt;rowguid&lt;br&gt;modifieddate&lt;/td&gt;&lt;/tr&gt;&lt;/tbody&gt;&lt;/table&gt;" style="verticalAlign=top;align=left;overflow=fill;html=1;rounded=0;shadow=0;comic=0;labelBackgroundColor=none;strokeWidth=1;fontFamily=Verdana;fontSize=12;strokeColor=#141414;" parent="1" vertex="1">
          <mxGeometry x="280" y="160" width="160" height="100" as="geometry" />
        </mxCell>
        <mxCell id="jCXSHF31f1DGIERjWWqb-13" value="&lt;div style=&quot;box-sizing: border-box ; width: 100% ; background: #e4e4e4 ; padding: 2px&quot;&gt;production.productcategory&lt;/div&gt;&lt;table border=&quot;1&quot; style=&quot;width: 100%; font-size: 1em; border: 1px solid rgb(3, 3, 3); border-collapse: collapse;&quot; cellpadding=&quot;2&quot; cellspacing=&quot;0&quot;&gt;&lt;tbody&gt;&lt;tr&gt;&lt;td&gt;PK&lt;/td&gt;&lt;td&gt;productcategoryid&lt;/td&gt;&lt;/tr&gt;&lt;tr&gt;&lt;td&gt;&lt;br&gt;&lt;/td&gt;&lt;td&gt;name&lt;br&gt;rowguid&lt;br&gt;modifieddate&lt;/td&gt;&lt;/tr&gt;&lt;/tbody&gt;&lt;/table&gt;" style="verticalAlign=top;align=left;overflow=fill;html=1;rounded=0;shadow=0;comic=0;labelBackgroundColor=none;strokeWidth=1;fontFamily=Verdana;fontSize=12;strokeColor=#141414;" parent="1" vertex="1">
          <mxGeometry x="280" y="280" width="160" height="90" as="geometry" />
        </mxCell>
        <mxCell id="jCXSHF31f1DGIERjWWqb-23" style="edgeStyle=orthogonalEdgeStyle;rounded=0;orthogonalLoop=1;jettySize=auto;html=1;exitX=0;exitY=0.5;exitDx=0;exitDy=0;entryX=0.5;entryY=0;entryDx=0;entryDy=0;startArrow=none;startFill=0;endArrow=ERmany;endFill=0;" parent="1" source="jCXSHF31f1DGIERjWWqb-16" target="jCXSHF31f1DGIERjWWqb-18" edge="1">
          <mxGeometry relative="1" as="geometry" />
        </mxCell>
        <mxCell id="jCXSHF31f1DGIERjWWqb-16" value="&lt;div style=&quot;box-sizing: border-box ; width: 100% ; background: #e4e4e4 ; padding: 2px&quot;&gt;production.productmodel&lt;/div&gt;&lt;table border=&quot;1&quot; style=&quot;width: 100%; font-size: 1em; border: 1px solid rgb(3, 3, 3); border-collapse: collapse;&quot; cellpadding=&quot;2&quot; cellspacing=&quot;0&quot;&gt;&lt;tbody&gt;&lt;tr&gt;&lt;td&gt;PK&lt;/td&gt;&lt;td&gt;productmodelid&lt;/td&gt;&lt;/tr&gt;&lt;tr&gt;&lt;td&gt;&lt;br&gt;&lt;/td&gt;&lt;td&gt;name&lt;br&gt;catalogdescription&lt;br&gt;instructions&lt;br&gt;rowguid&lt;br&gt;modifieddate&lt;/td&gt;&lt;/tr&gt;&lt;/tbody&gt;&lt;/table&gt;" style="verticalAlign=top;align=left;overflow=fill;html=1;rounded=0;shadow=0;comic=0;labelBackgroundColor=none;strokeWidth=1;fontFamily=Verdana;fontSize=12;strokeColor=#141414;" parent="1" vertex="1">
          <mxGeometry x="260" y="450" width="220" height="110" as="geometry" />
        </mxCell>
        <mxCell id="jCXSHF31f1DGIERjWWqb-25" value="" style="edgeStyle=orthogonalEdgeStyle;rounded=0;orthogonalLoop=1;jettySize=auto;html=1;startArrow=none;startFill=0;endArrow=ERmany;endFill=0;" parent="1" source="jCXSHF31f1DGIERjWWqb-18" target="jCXSHF31f1DGIERjWWqb-24" edge="1">
          <mxGeometry relative="1" as="geometry" />
        </mxCell>
        <mxCell id="jCXSHF31f1DGIERjWWqb-18" value="&lt;div style=&quot;box-sizing: border-box ; width: 100% ; background: #e4e4e4 ; padding: 2px&quot;&gt;production.productmodelproductdescriptionculture&lt;/div&gt;&lt;table border=&quot;1&quot; style=&quot;width: 100%; font-size: 1em; border: 1px solid rgb(3, 3, 3); border-collapse: collapse;&quot; cellpadding=&quot;2&quot; cellspacing=&quot;0&quot;&gt;&lt;tbody&gt;&lt;tr&gt;&lt;td&gt;PK&lt;br&gt;PK&lt;br&gt;PK&lt;/td&gt;&lt;td&gt;productmodelid&lt;br&gt;productdescriptionid&lt;br&gt;cultureid&lt;/td&gt;&lt;/tr&gt;&lt;tr&gt;&lt;td&gt;&lt;br&gt;&lt;/td&gt;&lt;td&gt;modifieddate&lt;/td&gt;&lt;/tr&gt;&lt;/tbody&gt;&lt;/table&gt;" style="verticalAlign=top;align=left;overflow=fill;html=1;rounded=0;shadow=0;comic=0;labelBackgroundColor=none;strokeWidth=1;fontFamily=Verdana;fontSize=12;strokeColor=#141414;" parent="1" vertex="1">
          <mxGeometry x="20" y="580" width="260" height="90" as="geometry" />
        </mxCell>
        <mxCell id="jCXSHF31f1DGIERjWWqb-24" value="&lt;div style=&quot;box-sizing: border-box ; width: 100% ; background: #e4e4e4 ; padding: 2px&quot;&gt;production.productdescription&lt;/div&gt;&lt;table border=&quot;1&quot; style=&quot;width: 100%; font-size: 1em; border: 1px solid rgb(3, 3, 3); border-collapse: collapse;&quot; cellpadding=&quot;2&quot; cellspacing=&quot;0&quot;&gt;&lt;tbody&gt;&lt;tr&gt;&lt;td&gt;PK&lt;br&gt;&lt;/td&gt;&lt;td&gt;productdescriptionid&lt;br&gt;&lt;/td&gt;&lt;/tr&gt;&lt;tr&gt;&lt;td&gt;&lt;br&gt;&lt;/td&gt;&lt;td&gt;description&lt;br&gt;rowguid&lt;br&gt;modifieddate&lt;/td&gt;&lt;/tr&gt;&lt;/tbody&gt;&lt;/table&gt;" style="verticalAlign=top;align=left;overflow=fill;html=1;rounded=0;shadow=0;comic=0;labelBackgroundColor=none;strokeWidth=1;fontFamily=Verdana;fontSize=12;strokeColor=#141414;" parent="1" vertex="1">
          <mxGeometry x="20" y="720" width="260" height="90" as="geometry" />
        </mxCell>
        <mxCell id="jCXSHF31f1DGIERjWWqb-26" value="" style="shape=flexArrow;endArrow=classic;html=1;rounded=0;endWidth=56;endSize=21.67;width=44;fillColor=#dae8fc;strokeColor=#6c8ebf;" parent="1" edge="1">
          <mxGeometry width="50" height="50" relative="1" as="geometry">
            <mxPoint x="510" y="425" as="sourcePoint" />
            <mxPoint x="680" y="425" as="targetPoint" />
          </mxGeometry>
        </mxCell>
        <mxCell id="jCXSHF31f1DGIERjWWqb-27" value="Denormalization" style="edgeLabel;html=1;align=center;verticalAlign=middle;resizable=0;points=[];fontSize=14;labelBackgroundColor=none;" parent="jCXSHF31f1DGIERjWWqb-26" vertex="1" connectable="0">
          <mxGeometry x="-0.3294" y="-7" relative="1" as="geometry">
            <mxPoint x="13" y="-7" as="offset" />
          </mxGeometry>
        </mxCell>
        <mxCell id="jCXSHF31f1DGIERjWWqb-28" value="&lt;div style=&quot;box-sizing: border-box; width: 100%; background: rgb(228, 228, 228); padding: 2px; font-size: 14px;&quot;&gt;product_dim&lt;/div&gt;&lt;table border=&quot;1&quot; style=&quot;width: 100%; font-size: 14px; border: 1px solid rgb(3, 3, 3); border-collapse: collapse;&quot; cellpadding=&quot;2&quot; cellspacing=&quot;0&quot;&gt;&lt;tbody style=&quot;font-size: 14px;&quot;&gt;&lt;tr style=&quot;font-size: 14px;&quot;&gt;&lt;td style=&quot;font-size: 14px;&quot;&gt;PK&lt;/td&gt;&lt;td style=&quot;font-size: 14px;&quot;&gt;productid&lt;/td&gt;&lt;/tr&gt;&lt;tr style=&quot;font-size: 14px;&quot;&gt;&lt;td style=&quot;font-size: 14px;&quot;&gt;&lt;br style=&quot;font-size: 14px;&quot;&gt;&lt;/td&gt;&lt;td style=&quot;font-size: 14px;&quot;&gt;name&lt;br style=&quot;font-size: 14px;&quot;&gt;listprice&lt;br style=&quot;font-size: 14px;&quot;&gt;standardcost&lt;br style=&quot;font-size: 14px;&quot;&gt;productsubcategory&lt;br style=&quot;font-size: 14px;&quot;&gt;productcategory&lt;br style=&quot;font-size: 14px;&quot;&gt;productmodel&lt;br style=&quot;font-size: 14px;&quot;&gt;productdescription&lt;br style=&quot;font-size: 14px;&quot;&gt;sellstartdate&lt;br style=&quot;font-size: 14px;&quot;&gt;sellenddate&lt;br style=&quot;font-size: 14px;&quot;&gt;discontinueddate&lt;br style=&quot;font-size: 14px;&quot;&gt;modifieddate&lt;/td&gt;&lt;/tr&gt;&lt;/tbody&gt;&lt;/table&gt;" style="verticalAlign=top;align=left;overflow=fill;html=1;rounded=0;shadow=0;comic=0;labelBackgroundColor=none;strokeWidth=1;fontFamily=Verdana;fontSize=14;fillColor=#d5e8d4;strokeColor=#82b366;" parent="1" vertex="1">
          <mxGeometry x="760" y="320" width="250" height="230" as="geometry" />
        </mxCell>
      </root>
    </mxGraphModel>
  </diagram>
  <diagram id="XpHY0wRuotrye-SUJkQV" name="address_denormalization">
    <mxGraphModel dx="1422" dy="793" grid="1" gridSize="10" guides="1" tooltips="1" connect="1" arrows="1" fold="1" page="1" pageScale="1" pageWidth="827" pageHeight="1169" math="0" shadow="0">
      <root>
        <mxCell id="0" />
        <mxCell id="1" parent="0" />
        <mxCell id="wPbMt9cMxpNVU8BOEHsN-2" value="" style="edgeStyle=orthogonalEdgeStyle;rounded=0;orthogonalLoop=1;jettySize=auto;html=1;exitX=1.005;exitY=0.575;exitDx=0;exitDy=0;exitPerimeter=0;endArrow=none;endFill=0;startArrow=ERmany;startFill=0;" edge="1" parent="1" source="7471SvFqqQG7SneJkpLM-1" target="wPbMt9cMxpNVU8BOEHsN-1">
          <mxGeometry relative="1" as="geometry">
            <mxPoint x="240" y="340" as="targetPoint" />
            <Array as="points">
              <mxPoint x="270" y="212" />
              <mxPoint x="270" y="340" />
            </Array>
          </mxGeometry>
        </mxCell>
        <mxCell id="7471SvFqqQG7SneJkpLM-1" value="&lt;div style=&quot;box-sizing: border-box ; width: 100% ; background: #e4e4e4 ; padding: 2px&quot;&gt;person.address&lt;/div&gt;&lt;table border=&quot;1&quot; style=&quot;width: 100%; font-size: 1em; border: 1px solid rgb(3, 3, 3); border-collapse: collapse;&quot; cellpadding=&quot;2&quot; cellspacing=&quot;0&quot;&gt;&lt;tbody&gt;&lt;tr&gt;&lt;td&gt;PK&lt;/td&gt;&lt;td&gt;adressid&lt;/td&gt;&lt;/tr&gt;&lt;tr&gt;&lt;td&gt;FK&lt;br&gt;&lt;br&gt;&lt;/td&gt;&lt;td&gt;addressline1&lt;br&gt;addressline2&lt;br&gt;city&lt;br&gt;stateprovinceid&lt;br&gt;postalcode&lt;br&gt;spatiallocation&lt;br&gt;rowguid&lt;br&gt;modifieddate&lt;/td&gt;&lt;/tr&gt;&lt;/tbody&gt;&lt;/table&gt;" style="verticalAlign=top;align=left;overflow=fill;html=1;rounded=0;shadow=0;comic=0;labelBackgroundColor=none;strokeWidth=1;fontFamily=Verdana;fontSize=12;strokeColor=#141414;" vertex="1" parent="1">
          <mxGeometry x="10" y="120" width="220" height="160" as="geometry" />
        </mxCell>
        <mxCell id="wPbMt9cMxpNVU8BOEHsN-4" value="" style="edgeStyle=orthogonalEdgeStyle;rounded=0;orthogonalLoop=1;jettySize=auto;html=1;startArrow=ERmany;startFill=0;endArrow=none;endFill=0;exitX=1;exitY=0.5;exitDx=0;exitDy=0;entryX=1.009;entryY=0.414;entryDx=0;entryDy=0;entryPerimeter=0;" edge="1" parent="1" source="wPbMt9cMxpNVU8BOEHsN-1" target="wPbMt9cMxpNVU8BOEHsN-3">
          <mxGeometry relative="1" as="geometry">
            <mxPoint x="250" y="510" as="targetPoint" />
            <Array as="points">
              <mxPoint x="250" y="380" />
              <mxPoint x="250" y="497" />
              <mxPoint x="232" y="497" />
            </Array>
          </mxGeometry>
        </mxCell>
        <mxCell id="wPbMt9cMxpNVU8BOEHsN-7" value="" style="edgeStyle=orthogonalEdgeStyle;rounded=0;orthogonalLoop=1;jettySize=auto;html=1;startArrow=ERmany;startFill=0;endArrow=none;endFill=0;exitX=1;exitY=0.75;exitDx=0;exitDy=0;entryX=1.005;entryY=0.193;entryDx=0;entryDy=0;entryPerimeter=0;" edge="1" parent="1" source="wPbMt9cMxpNVU8BOEHsN-1" target="wPbMt9cMxpNVU8BOEHsN-6">
          <mxGeometry relative="1" as="geometry">
            <Array as="points">
              <mxPoint x="270" y="415" />
              <mxPoint x="270" y="587" />
            </Array>
          </mxGeometry>
        </mxCell>
        <mxCell id="wPbMt9cMxpNVU8BOEHsN-1" value="&lt;div style=&quot;box-sizing: border-box ; width: 100% ; background: #e4e4e4 ; padding: 2px&quot;&gt;person.stateprovince&lt;/div&gt;&lt;table border=&quot;1&quot; style=&quot;width: 100%; font-size: 1em; border: 1px solid rgb(3, 3, 3); border-collapse: collapse;&quot; cellpadding=&quot;2&quot; cellspacing=&quot;0&quot;&gt;&lt;tbody&gt;&lt;tr&gt;&lt;td&gt;PK&lt;/td&gt;&lt;td&gt;stateprovinceid&lt;/td&gt;&lt;/tr&gt;&lt;tr&gt;&lt;td&gt;FK&lt;br&gt;&lt;br&gt;&lt;br&gt;FK&lt;br&gt;&lt;br&gt;&lt;/td&gt;&lt;td&gt;stateprovincecode&lt;br&gt;countryregioncode&lt;br&gt;isonlystateprovinceflag&lt;br&gt;name&lt;br&gt;territoryid&lt;br&gt;rowguid&lt;br&gt;modifieddate&lt;/td&gt;&lt;/tr&gt;&lt;/tbody&gt;&lt;/table&gt;" style="verticalAlign=top;align=left;overflow=fill;html=1;rounded=0;shadow=0;comic=0;labelBackgroundColor=none;strokeWidth=1;fontFamily=Verdana;fontSize=12;strokeColor=#141414;" vertex="1" parent="1">
          <mxGeometry x="10" y="310" width="220" height="140" as="geometry" />
        </mxCell>
        <mxCell id="wPbMt9cMxpNVU8BOEHsN-3" value="&lt;div style=&quot;box-sizing: border-box ; width: 100% ; background: #e4e4e4 ; padding: 2px&quot;&gt;person.countryregion&lt;/div&gt;&lt;table border=&quot;1&quot; style=&quot;width: 100%; font-size: 1em; border: 1px solid rgb(3, 3, 3); border-collapse: collapse;&quot; cellpadding=&quot;2&quot; cellspacing=&quot;0&quot;&gt;&lt;tbody&gt;&lt;tr&gt;&lt;td&gt;PK&lt;/td&gt;&lt;td&gt;countryregioncode&lt;/td&gt;&lt;/tr&gt;&lt;tr&gt;&lt;td&gt;&lt;br&gt;&lt;/td&gt;&lt;td&gt;name&lt;br&gt;modifieddate&lt;/td&gt;&lt;/tr&gt;&lt;/tbody&gt;&lt;/table&gt;" style="verticalAlign=top;align=left;overflow=fill;html=1;rounded=0;shadow=0;comic=0;labelBackgroundColor=none;strokeWidth=1;fontFamily=Verdana;fontSize=12;strokeColor=#141414;" vertex="1" parent="1">
          <mxGeometry x="10" y="470" width="220" height="70" as="geometry" />
        </mxCell>
        <mxCell id="wPbMt9cMxpNVU8BOEHsN-6" value="&lt;div style=&quot;box-sizing: border-box ; width: 100% ; background: #e4e4e4 ; padding: 2px&quot;&gt;sales.salesterritory&lt;/div&gt;&lt;table border=&quot;1&quot; style=&quot;width: 100%; font-size: 1em; border: 1px solid rgb(3, 3, 3); border-collapse: collapse;&quot; cellpadding=&quot;2&quot; cellspacing=&quot;0&quot;&gt;&lt;tbody&gt;&lt;tr&gt;&lt;td&gt;PK&lt;/td&gt;&lt;td&gt;territoryid&lt;/td&gt;&lt;/tr&gt;&lt;tr&gt;&lt;td&gt;&lt;br&gt;&lt;/td&gt;&lt;td&gt;name&lt;br&gt;countryregioncode&lt;br&gt;group&lt;br&gt;salesytd&lt;br&gt;saleslastyear&lt;br&gt;costytd&lt;br&gt;costlastyear&lt;br&gt;rowguid&lt;br&gt;modifieddate&lt;/td&gt;&lt;/tr&gt;&lt;/tbody&gt;&lt;/table&gt;" style="verticalAlign=top;align=left;overflow=fill;html=1;rounded=0;shadow=0;comic=0;labelBackgroundColor=none;strokeWidth=1;fontFamily=Verdana;fontSize=12;strokeColor=#141414;" vertex="1" parent="1">
          <mxGeometry x="10" y="560" width="220" height="170" as="geometry" />
        </mxCell>
        <mxCell id="b7YPUiHcs0L8crAmLPJv-1" value="" style="shape=flexArrow;endArrow=classic;html=1;rounded=0;endWidth=56;endSize=21.67;width=44;fillColor=#dae8fc;strokeColor=#6c8ebf;" edge="1" parent="1">
          <mxGeometry width="50" height="50" relative="1" as="geometry">
            <mxPoint x="320" y="400" as="sourcePoint" />
            <mxPoint x="490" y="400" as="targetPoint" />
          </mxGeometry>
        </mxCell>
        <mxCell id="b7YPUiHcs0L8crAmLPJv-2" value="Denormalization" style="edgeLabel;html=1;align=center;verticalAlign=middle;resizable=0;points=[];fontSize=14;labelBackgroundColor=none;" vertex="1" connectable="0" parent="b7YPUiHcs0L8crAmLPJv-1">
          <mxGeometry x="-0.3294" y="-7" relative="1" as="geometry">
            <mxPoint x="13" y="-7" as="offset" />
          </mxGeometry>
        </mxCell>
        <mxCell id="K26j6cKm-dryQ3FpSVlG-1" value="&lt;div style=&quot;box-sizing: border-box; width: 100%; background: rgb(228, 228, 228); padding: 2px; font-size: 14px;&quot;&gt;address_dim&lt;/div&gt;&lt;table border=&quot;1&quot; style=&quot;width: 100%; font-size: 14px; border: 1px solid rgb(3, 3, 3); border-collapse: collapse;&quot; cellpadding=&quot;2&quot; cellspacing=&quot;0&quot;&gt;&lt;tbody style=&quot;font-size: 14px;&quot;&gt;&lt;tr style=&quot;font-size: 14px;&quot;&gt;&lt;td style=&quot;font-size: 14px;&quot;&gt;PK&lt;/td&gt;&lt;td style=&quot;font-size: 14px;&quot;&gt;addressid&lt;/td&gt;&lt;/tr&gt;&lt;tr style=&quot;font-size: 14px;&quot;&gt;&lt;td style=&quot;font-size: 14px;&quot;&gt;&lt;br style=&quot;font-size: 14px;&quot;&gt;&lt;/td&gt;&lt;td style=&quot;font-size: 14px;&quot;&gt;&lt;span style=&quot;font-size: 14px;&quot;&gt;addressline1&lt;/span&gt;&lt;br style=&quot;font-size: 14px;&quot;&gt;&lt;span style=&quot;font-size: 14px;&quot;&gt;addressline2&lt;/span&gt;&lt;br style=&quot;font-size: 14px;&quot;&gt;&lt;span style=&quot;font-size: 14px;&quot;&gt;city&lt;/span&gt;&lt;br style=&quot;font-size: 14px;&quot;&gt;&lt;span style=&quot;font-size: 14px;&quot;&gt;stateprovince&lt;br style=&quot;font-size: 14px;&quot;&gt;&lt;/span&gt;countryregion&lt;br style=&quot;font-size: 14px;&quot;&gt;salesterritory&lt;br style=&quot;font-size: 14px;&quot;&gt;&lt;span style=&quot;font-size: 14px;&quot;&gt;postalcode&lt;/span&gt;&lt;br style=&quot;font-size: 14px;&quot;&gt;&lt;span style=&quot;font-size: 14px;&quot;&gt;spatiallocation&lt;/span&gt;&lt;br style=&quot;font-size: 14px;&quot;&gt;&lt;span style=&quot;font-size: 14px;&quot;&gt;rowguid&lt;/span&gt;&lt;br style=&quot;font-size: 14px;&quot;&gt;&lt;span style=&quot;font-size: 14px;&quot;&gt;modifieddate&lt;/span&gt;&lt;br style=&quot;font-size: 14px;&quot;&gt;&lt;/td&gt;&lt;/tr&gt;&lt;/tbody&gt;&lt;/table&gt;" style="verticalAlign=top;align=left;overflow=fill;html=1;rounded=0;shadow=0;comic=0;labelBackgroundColor=none;strokeWidth=1;fontFamily=Verdana;fontSize=14;fillColor=#d5e8d4;strokeColor=#82b366;" vertex="1" parent="1">
          <mxGeometry x="530" y="300" width="250" height="210" as="geometry" />
        </mxCell>
      </root>
    </mxGraphModel>
  </diagram>
  <diagram id="XXq1iumz1aTun882dGG9" name="customer_denormalization">
    <mxGraphModel dx="1422" dy="793" grid="1" gridSize="10" guides="1" tooltips="1" connect="1" arrows="1" fold="1" page="1" pageScale="1" pageWidth="827" pageHeight="1169" math="0" shadow="0">
      <root>
        <mxCell id="0" />
        <mxCell id="1" parent="0" />
        <mxCell id="w_ITq2_y-BH33tFpo7B--4" value="" style="edgeStyle=orthogonalEdgeStyle;rounded=0;orthogonalLoop=1;jettySize=auto;html=1;fontSize=14;startArrow=ERmany;startFill=0;endArrow=none;endFill=0;exitX=1.014;exitY=0.418;exitDx=0;exitDy=0;exitPerimeter=0;entryX=1;entryY=0.25;entryDx=0;entryDy=0;" edge="1" parent="1" source="w_ITq2_y-BH33tFpo7B--1" target="w_ITq2_y-BH33tFpo7B--3">
          <mxGeometry relative="1" as="geometry">
            <Array as="points">
              <mxPoint x="260" y="376" />
              <mxPoint x="260" y="508" />
            </Array>
          </mxGeometry>
        </mxCell>
        <mxCell id="w_ITq2_y-BH33tFpo7B--6" value="" style="edgeStyle=orthogonalEdgeStyle;rounded=0;orthogonalLoop=1;jettySize=auto;html=1;fontSize=14;startArrow=ERmany;startFill=0;endArrow=none;endFill=0;exitX=1.014;exitY=0.664;exitDx=0;exitDy=0;exitPerimeter=0;entryX=1;entryY=0.194;entryDx=0;entryDy=0;entryPerimeter=0;" edge="1" parent="1" source="w_ITq2_y-BH33tFpo7B--1" target="w_ITq2_y-BH33tFpo7B--5">
          <mxGeometry relative="1" as="geometry">
            <Array as="points">
              <mxPoint x="250" y="403" />
              <mxPoint x="250" y="180" />
              <mxPoint x="230" y="180" />
            </Array>
          </mxGeometry>
        </mxCell>
        <mxCell id="w_ITq2_y-BH33tFpo7B--1" value="&lt;div style=&quot;box-sizing: border-box ; width: 100% ; background: #e4e4e4 ; padding: 2px&quot;&gt;sales.customer&lt;/div&gt;&lt;table border=&quot;1&quot; style=&quot;width: 100%; font-size: 1em; border: 1px solid rgb(3, 3, 3); border-collapse: collapse;&quot; cellpadding=&quot;2&quot; cellspacing=&quot;0&quot;&gt;&lt;tbody&gt;&lt;tr&gt;&lt;td&gt;PK&lt;/td&gt;&lt;td&gt;customerid&lt;/td&gt;&lt;/tr&gt;&lt;tr&gt;&lt;td&gt;FK&lt;br&gt;FK&lt;br&gt;FK&lt;br&gt;&lt;br&gt;&lt;br&gt;&lt;/td&gt;&lt;td&gt;personid&lt;br&gt;storeid&lt;br&gt;territoryid&lt;br&gt;rowguid&lt;br&gt;modifieddate&lt;/td&gt;&lt;/tr&gt;&lt;/tbody&gt;&lt;/table&gt;" style="verticalAlign=top;align=left;overflow=fill;html=1;rounded=0;shadow=0;comic=0;labelBackgroundColor=none;strokeWidth=1;fontFamily=Verdana;fontSize=12;strokeColor=#141414;" vertex="1" parent="1">
          <mxGeometry x="10" y="330" width="220" height="110" as="geometry" />
        </mxCell>
        <mxCell id="w_ITq2_y-BH33tFpo7B--3" value="&lt;div style=&quot;box-sizing: border-box ; width: 100% ; background: #e4e4e4 ; padding: 2px&quot;&gt;person.person&lt;/div&gt;&lt;table border=&quot;1&quot; style=&quot;width: 100%; font-size: 1em; border: 1px solid rgb(3, 3, 3); border-collapse: collapse;&quot; cellpadding=&quot;2&quot; cellspacing=&quot;0&quot;&gt;&lt;tbody&gt;&lt;tr&gt;&lt;td&gt;PK, FK&lt;/td&gt;&lt;td&gt;businessentityid&lt;/td&gt;&lt;/tr&gt;&lt;tr&gt;&lt;td&gt;&lt;br&gt;&lt;br&gt;&lt;br&gt;&lt;/td&gt;&lt;td&gt;persontype&lt;br&gt;namestyle&lt;br&gt;title&lt;br&gt;firstname&lt;br&gt;lastname&lt;br&gt;suffix&lt;br&gt;emailpromotion&lt;br&gt;additionalcontactinfo&lt;br&gt;demographics&lt;br&gt;rowguid&lt;br&gt;modifieddate&lt;/td&gt;&lt;/tr&gt;&lt;/tbody&gt;&lt;/table&gt;" style="verticalAlign=top;align=left;overflow=fill;html=1;rounded=0;shadow=0;comic=0;labelBackgroundColor=none;strokeWidth=1;fontFamily=Verdana;fontSize=12;strokeColor=#141414;" vertex="1" parent="1">
          <mxGeometry x="10" y="465" width="220" height="200" as="geometry" />
        </mxCell>
        <mxCell id="YW4Uc5j2vf4NNEfxVqig-3" value="" style="edgeStyle=orthogonalEdgeStyle;rounded=0;orthogonalLoop=1;jettySize=auto;html=1;fontSize=14;startArrow=ERmany;startFill=0;endArrow=none;endFill=0;exitX=0.995;exitY=0.376;exitDx=0;exitDy=0;exitPerimeter=0;entryX=1;entryY=0.25;entryDx=0;entryDy=0;" edge="1" parent="1" source="w_ITq2_y-BH33tFpo7B--5" target="Gb80RpG5NT-BXkZ7sR19-1">
          <mxGeometry relative="1" as="geometry">
            <mxPoint x="230" y="-12" as="targetPoint" />
            <Array as="points">
              <mxPoint x="260" y="214" />
              <mxPoint x="260" y="80" />
              <mxPoint x="230" y="80" />
            </Array>
          </mxGeometry>
        </mxCell>
        <mxCell id="w_ITq2_y-BH33tFpo7B--5" value="&lt;div style=&quot;box-sizing: border-box ; width: 100% ; background: #e4e4e4 ; padding: 2px&quot;&gt;&lt;div style=&quot;box-sizing: border-box; width: 220px; background-image: initial; background-position: initial; background-size: initial; background-repeat: initial; background-attachment: initial; background-origin: initial; background-clip: initial; padding: 2px;&quot;&gt;sales.salesterritory&lt;/div&gt;&lt;table style=&quot;font-size: 1em; background-color: rgb(248, 249, 250); width: 220px; border: 1px solid rgb(3, 3, 3); border-collapse: collapse;&quot; border=&quot;1&quot; cellpadding=&quot;2&quot; cellspacing=&quot;0&quot;&gt;&lt;tbody&gt;&lt;tr&gt;&lt;td&gt;PK&lt;/td&gt;&lt;td&gt;territoryid&lt;/td&gt;&lt;/tr&gt;&lt;tr&gt;&lt;td&gt;&lt;br&gt;&lt;/td&gt;&lt;td&gt;name&lt;br&gt;countryregioncode&lt;br&gt;group&lt;br&gt;salesytd&lt;br&gt;saleslastyear&lt;br&gt;costytd&lt;br&gt;costlastyear&lt;br&gt;rowguid&lt;br&gt;modifieddate&lt;/td&gt;&lt;/tr&gt;&lt;/tbody&gt;&lt;/table&gt;&lt;table style=&quot;background-color: initial; font-size: 1em; width: 100%; border: 1px solid rgb(3, 3, 3); border-collapse: collapse;&quot; border=&quot;1&quot; cellpadding=&quot;2&quot; cellspacing=&quot;0&quot;&gt;&lt;tbody&gt;&lt;tr&gt;&lt;td&gt;&lt;/td&gt;&lt;td&gt;&lt;br&gt;&lt;/td&gt;&lt;/tr&gt;&lt;tr&gt;&lt;td&gt;&lt;/td&gt;&lt;td&gt;&lt;br&gt;&lt;/td&gt;&lt;/tr&gt;&lt;/tbody&gt;&lt;/table&gt;&lt;/div&gt;" style="verticalAlign=top;align=left;overflow=fill;html=1;rounded=0;shadow=0;comic=0;labelBackgroundColor=none;strokeWidth=1;fontFamily=Verdana;fontSize=12;strokeColor=#141414;" vertex="1" parent="1">
          <mxGeometry x="10" y="150" width="220" height="170" as="geometry" />
        </mxCell>
        <mxCell id="4Tys1JTV_Q9dURahEugj-1" value="" style="shape=flexArrow;endArrow=classic;html=1;rounded=0;endWidth=56;endSize=21.67;width=44;fillColor=#dae8fc;strokeColor=#6c8ebf;" edge="1" parent="1">
          <mxGeometry width="50" height="50" relative="1" as="geometry">
            <mxPoint x="300" y="330" as="sourcePoint" />
            <mxPoint x="470" y="330" as="targetPoint" />
          </mxGeometry>
        </mxCell>
        <mxCell id="4Tys1JTV_Q9dURahEugj-2" value="Denormalization" style="edgeLabel;html=1;align=center;verticalAlign=middle;resizable=0;points=[];fontSize=14;labelBackgroundColor=none;" vertex="1" connectable="0" parent="4Tys1JTV_Q9dURahEugj-1">
          <mxGeometry x="-0.3294" y="-7" relative="1" as="geometry">
            <mxPoint x="13" y="-7" as="offset" />
          </mxGeometry>
        </mxCell>
        <mxCell id="Gb80RpG5NT-BXkZ7sR19-1" value="&lt;div style=&quot;box-sizing: border-box ; width: 100% ; background: #e4e4e4 ; padding: 2px&quot;&gt;person.countryregion&lt;/div&gt;&lt;table border=&quot;1&quot; style=&quot;width: 100%; font-size: 1em; border: 1px solid rgb(3, 3, 3); border-collapse: collapse;&quot; cellpadding=&quot;2&quot; cellspacing=&quot;0&quot;&gt;&lt;tbody&gt;&lt;tr&gt;&lt;td&gt;PK&lt;/td&gt;&lt;td&gt;countryregioncode&lt;/td&gt;&lt;/tr&gt;&lt;tr&gt;&lt;td&gt;&lt;br&gt;&lt;/td&gt;&lt;td&gt;name&lt;br&gt;modifieddate&lt;/td&gt;&lt;/tr&gt;&lt;/tbody&gt;&lt;/table&gt;" style="verticalAlign=top;align=left;overflow=fill;html=1;rounded=0;shadow=0;comic=0;labelBackgroundColor=none;strokeWidth=1;fontFamily=Verdana;fontSize=12;strokeColor=#141414;" vertex="1" parent="1">
          <mxGeometry x="10" y="60" width="220" height="70" as="geometry" />
        </mxCell>
        <mxCell id="U5LSrBQW8tLyNdIG8uhn-1" value="&lt;div style=&quot;box-sizing: border-box; width: 100%; background: rgb(228, 228, 228); padding: 2px; font-size: 14px;&quot;&gt;customer_dim&lt;/div&gt;&lt;table border=&quot;1&quot; style=&quot;width: 100%; font-size: 14px; border: 1px solid rgb(3, 3, 3); border-collapse: collapse;&quot; cellpadding=&quot;2&quot; cellspacing=&quot;0&quot;&gt;&lt;tbody style=&quot;font-size: 14px;&quot;&gt;&lt;tr style=&quot;font-size: 14px;&quot;&gt;&lt;td style=&quot;font-size: 14px;&quot;&gt;PK&lt;/td&gt;&lt;td style=&quot;font-size: 14px;&quot;&gt;customerid&lt;/td&gt;&lt;/tr&gt;&lt;tr style=&quot;font-size: 14px;&quot;&gt;&lt;td style=&quot;font-size: 14px;&quot;&gt;&lt;br style=&quot;font-size: 14px;&quot;&gt;&lt;/td&gt;&lt;td style=&quot;font-size: 14px;&quot;&gt;&lt;span style=&quot;font-size: 12px;&quot;&gt;title&lt;br&gt;firstname&lt;br&gt;&lt;/span&gt;lastname&lt;br&gt;salesterritory&lt;br&gt;countryregion&lt;br&gt;&lt;/td&gt;&lt;/tr&gt;&lt;/tbody&gt;&lt;/table&gt;" style="verticalAlign=top;align=left;overflow=fill;html=1;rounded=0;shadow=0;comic=0;labelBackgroundColor=none;strokeWidth=1;fontFamily=Verdana;fontSize=14;fillColor=#d5e8d4;strokeColor=#82b366;" vertex="1" parent="1">
          <mxGeometry x="530" y="270" width="250" height="130" as="geometry" />
        </mxCell>
      </root>
    </mxGraphModel>
  </diagram>
</mxfile>
